<svg width="15" height="13" viewBox="0 0 15 13" fill="none" xmlns="http://www.w3.org/2000/svg">
<path d="M7.71694 12.9123C8.16713 12.6648 9.18987 11.982 9.90758 11.4499C12.0976 9.82607 13.6627 8.15991 14.4196 6.64654C14.9649 5.55615 15.1086 4.68208 14.9232 3.58271C14.6418 1.91376 13.4052 0.50395 11.8866 0.120658C10.6821 -0.183358 9.47402 0.0913847 8.4738 0.896823C8.1928 1.1231 7.83996 1.51531 7.64776 1.81503C7.57516 1.92824 7.50916 2.02087 7.50109 2.02087C7.49301 2.02087 7.42702 1.92824 7.35442 1.81503C6.94828 1.18169 6.26642 0.608942 5.55557 0.304029C4.71885 -0.0548749 3.73341 -0.0952167 2.86614 0.193936C1.66917 0.593009 0.690738 1.59484 0.254637 2.86788C-0.442377 4.90256 0.282454 6.91755 2.54137 9.22489C3.78792 10.4982 5.32859 11.71 7.07306 12.7892C7.3855 12.9825 7.53665 13.0114 7.71694 12.9123Z" fill="url(#paint0_linear_1_299)"/>
<defs>
<linearGradient id="paint0_linear_1_299" x1="10.8074" y1="0.864528" x2="4.75568" y2="13.4002" gradientUnits="userSpaceOnUse">
<stop stop-color="#61D347"/>
<stop offset="1" stop-color="#2C8F6A"/>
</linearGradient>
</defs>
</svg>
