<svg width="72" height="70" viewBox="0 0 72 70" fill="none" xmlns="http://www.w3.org/2000/svg">
<g filter="url(#filter0_d_1_321)">
<path d="M22.7087 39.0082C22.1981 38.8973 21.8102 38.6802 21.4109 38.2816C21.0019 37.8735 20.7682 37.4377 20.6688 36.8983C20.5842 36.4393 20.577 22.438 20.6611 21.9247C20.7294 21.5075 20.9518 20.9998 21.208 20.6763C21.4459 20.376 34.4204 10.4788 34.8614 10.2612C35.5101 9.9412 36.3434 9.91303 37.0035 10.1888C37.3615 10.3384 37.5395 10.4712 44.2735 15.6093C50.1183 20.0691 50.6686 20.5039 50.9042 20.8482C51.4107 21.5884 51.3726 20.9464 51.3932 29.0732C51.4051 33.7776 51.39 36.4556 51.3497 36.7603C51.2713 37.3534 51.0619 37.7969 50.6505 38.2413C50.2785 38.6431 49.7607 38.9257 49.2141 39.0252C48.6796 39.1225 23.1596 39.1062 22.7087 39.0082Z" fill="url(#paint0_linear_1_321)"/>
</g>
<defs>
<filter id="filter0_d_1_321" x="0.601562" y="0" width="70.7957" height="69.0905" filterUnits="userSpaceOnUse" color-interpolation-filters="sRGB">
<feFlood flood-opacity="0" result="BackgroundImageFix"/>
<feColorMatrix in="SourceAlpha" type="matrix" values="0 0 0 0 0 0 0 0 0 0 0 0 0 0 0 0 0 0 127 0" result="hardAlpha"/>
<feOffset dy="10"/>
<feGaussianBlur stdDeviation="10"/>
<feComposite in2="hardAlpha" operator="out"/>
<feColorMatrix type="matrix" values="0 0 0 0 0 0 0 0 0 0 0 0 0 0 0 0 0 0 0.25 0"/>
<feBlend mode="normal" in2="BackgroundImageFix" result="effect1_dropShadow_1_321"/>
<feBlend mode="normal" in="SourceGraphic" in2="effect1_dropShadow_1_321" result="shape"/>
</filter>
<linearGradient id="paint0_linear_1_321" x1="52.0131" y1="10.6159" x2="35.9994" y2="39.0905" gradientUnits="userSpaceOnUse">
<stop stop-color="#04815B"/>
<stop offset="1" stop-color="#065A5E"/>
</linearGradient>
</defs>
</svg>
