<svg width="15" height="13" viewBox="0 0 15 13" fill="none" xmlns="http://www.w3.org/2000/svg">
<path d="M2.25345 12.2199C1.95724 12.1654 1.76649 12.1014 1.48831 11.9542C0.781344 11.5832 0.269301 10.9449 0.0662949 10.1813L0 9.93231V6.1341V2.33647L0.0662949 2.08692C0.321475 1.12691 1.09329 0.349977 2.05283 0.0864961C2.2805 0.0224638 2.34142 0.020134 4.06744 0.0106477C6.03347 -0.0130679 5.97479 -0.0130726 6.0725 0.183767C6.11045 0.257286 6.11754 0.349486 6.11042 0.650437C6.08671 0.977002 6.08693 1.03728 6.0395 1.10842C6.0063 1.15111 5.94694 1.19905 5.90662 1.2109C5.8663 1.23462 5.10188 1.23464 4.20495 1.23464C3.24969 1.23464 2.5084 1.25822 2.41615 1.26533C1.88326 1.36494 1.34595 1.90201 1.24658 2.4349C1.20626 2.65071 1.20626 9.61657 1.24658 9.83214C1.33195 10.2856 1.73998 10.7606 2.20742 10.9484C2.37343 11.0148 2.38278 11.0147 4.13489 11.0289C5.81847 11.0526 5.89864 11.0527 5.9871 11.1001C6.09856 11.1689 6.11303 11.2401 6.11303 11.667C6.11327 11.9964 6.07488 12.1328 5.96104 12.2118C5.89938 12.2545 5.71881 12.2593 4.17658 12.257C2.90613 12.257 2.40531 12.233 2.24997 12.2164L2.25345 12.2199ZM8.91537 11.8922C8.77782 11.8187 8.6925 11.731 8.63369 11.6039C8.58388 11.4948 8.57897 11.3831 8.57897 10.0429L8.57868 8.59946L6.35679 8.5763C4.25108 8.55258 4.12966 8.55235 4.02459 8.51203C3.87993 8.44088 3.71671 8.24775 3.68849 8.11542C3.65766 7.97787 3.65766 4.25906 3.68849 4.12151C3.71695 3.9887 3.87827 3.79618 4.02459 3.72432C4.12894 3.66978 4.25226 3.67012 6.35679 3.66063L8.57868 3.63689V2.19983C8.57868 0.652857 8.57925 0.641695 8.73269 0.47616C8.92005 0.276948 9.2608 0.232612 9.48799 0.381784C9.55914 0.429215 10.8153 1.6658 12.2779 3.13143C15.0832 5.94292 14.9997 5.85155 14.9997 6.10341C14.9997 6.35551 15.083 6.26483 12.2779 9.07655C10.8153 10.5419 9.55961 11.7795 9.48799 11.8262C9.3789 11.8973 9.32682 11.9114 9.18026 11.909C9.07828 11.9085 8.96696 11.8852 8.91479 11.8615L8.91537 11.8922Z" fill="#E4E5E6"/>
</svg>
