<svg width="30" height="30" viewBox="0 0 30 30" fill="none" xmlns="http://www.w3.org/2000/svg">
<circle cx="15" cy="15" r="15" fill="#218070"/>
<path d="M14.4701 26.0422C12.6402 25.9511 10.906 25.4463 9.36622 24.5564C7.96956 23.7492 6.62803 22.4833 5.70522 21.1017C5.35646 20.5796 5.30704 20.4301 5.40145 20.1828C5.51332 19.8899 5.87613 19.2803 6.18113 18.8728C7.20938 17.4989 8.70454 16.5656 10.4192 16.2275C10.9752 16.1178 11.1385 16.1482 11.6017 16.4475C12.3301 16.9184 12.9842 17.195 13.7778 17.3678C14.2863 17.4785 15.6189 17.4785 16.1274 17.3678C16.9005 17.1994 17.5827 16.9149 18.2463 16.4839C18.7869 16.1329 18.9118 16.1107 19.5738 16.2479C21.0483 16.5536 22.2881 17.2616 23.32 18.3873C23.9532 19.0782 24.6016 20.1652 24.5421 20.4362C24.5266 20.5065 24.3719 20.7782 24.1983 21.04C22.3825 23.7775 19.4852 25.5819 16.2952 25.9618C15.7792 26.0232 14.8824 26.0628 14.4701 26.0422ZM14.4849 15.7017C11.7926 15.4791 9.63048 13.3058 9.42016 10.611C9.19299 7.70029 11.209 5.14734 14.1134 4.66767C14.5528 4.59511 15.4401 4.60541 15.9102 4.68853C17.6085 4.98885 19.1155 6.1038 19.8906 7.63339C20.3375 8.51538 20.5056 9.22519 20.5007 10.2085C20.4877 12.7734 18.7307 14.9751 16.2178 15.5751C15.9032 15.6502 15.7102 15.675 15.0785 15.7213C14.9746 15.7289 14.7075 15.7201 14.4849 15.7017Z" fill="#E7EDED"/>
</svg>
