<svg width="72" height="70" viewBox="0 0 72 70" fill="none" xmlns="http://www.w3.org/2000/svg">
<g filter="url(#filter0_d_1_307)">
<path d="M23.6719 39.8575C22.4375 39.6936 21.2605 38.7335 20.8071 37.5206L20.6331 37.0552L20.6095 27.2698C20.5844 16.8576 20.6003 16.2525 20.9328 14.9419C21.2149 13.8295 21.6256 13.0752 22.3345 12.367C23.0302 11.6721 23.6639 11.3224 24.7097 11.0564L25.3769 10.8867H35.4588C45.0978 10.8867 45.5587 10.8928 45.9485 11.0248C47.0771 11.407 47.8619 12.1692 48.2551 13.2649C48.3845 13.6255 48.4193 13.931 48.45 14.9781L48.4874 16.2524L48.9882 16.4045C49.995 16.7103 50.9056 17.6265 51.231 18.661L51.3972 19.1895V28.0853V36.9811L51.2221 37.4881C50.7947 38.7263 49.7172 39.6229 48.3948 39.8412C48.0064 39.9053 24.1503 39.9211 23.6719 39.8575ZM45.7407 30.774C46.2766 30.5284 46.794 30.0128 47.0478 29.4713C47.2188 29.1065 47.2458 28.9531 47.2458 28.3447C47.2458 27.7364 47.2188 27.583 47.0478 27.2182C46.7953 26.6795 46.2794 26.1635 45.7407 25.911C45.3759 25.74 45.2224 25.7131 44.6141 25.7131C44.0058 25.7131 43.8523 25.74 43.4876 25.911C42.9489 26.1635 42.4329 26.6795 42.1804 27.2182C42.0094 27.583 41.9824 27.7364 41.9825 28.3447C41.9825 28.9164 42.0136 29.1164 42.1477 29.407C42.4828 30.1332 43.0066 30.6156 43.7468 30.8798C44.3049 31.079 45.176 31.0328 45.7407 30.774ZM46.0967 15.1232C46.0967 14.1393 46.0841 14.0404 45.9282 13.8091C45.8355 13.6715 45.6471 13.4831 45.5095 13.3904L45.2594 13.2219H35.4886C28.5365 13.2219 25.6045 13.2459 25.325 13.3052C24.2118 13.5414 23.4606 14.322 23.1938 15.5199C23.1438 15.7442 23.0869 15.986 23.0674 16.0574C23.0336 16.1805 23.6168 16.1871 34.5643 16.1871H46.0967V15.1232Z" fill="url(#paint0_linear_1_307)"/>
</g>
<defs>
<filter id="filter0_d_1_307" x="0.601562" y="0.886719" width="70.7957" height="69.0112" filterUnits="userSpaceOnUse" color-interpolation-filters="sRGB">
<feFlood flood-opacity="0" result="BackgroundImageFix"/>
<feColorMatrix in="SourceAlpha" type="matrix" values="0 0 0 0 0 0 0 0 0 0 0 0 0 0 0 0 0 0 127 0" result="hardAlpha"/>
<feOffset dy="10"/>
<feGaussianBlur stdDeviation="10"/>
<feComposite in2="hardAlpha" operator="out"/>
<feColorMatrix type="matrix" values="0 0 0 0 0 0 0 0 0 0 0 0 0 0 0 0 0 0 0.25 0"/>
<feBlend mode="normal" in2="BackgroundImageFix" result="effect1_dropShadow_1_307"/>
<feBlend mode="normal" in="SourceGraphic" in2="effect1_dropShadow_1_307" result="shape"/>
</filter>
<linearGradient id="paint0_linear_1_307" x1="63" y1="5.00049" x2="28.9164" y2="38.9107" gradientUnits="userSpaceOnUse">
<stop stop-color="#5FD149"/>
<stop offset="1" stop-color="#2C8F6A"/>
</linearGradient>
</defs>
</svg>
