<svg width="159" height="50" viewBox="0 0 159 50" fill="none" xmlns="http://www.w3.org/2000/svg">
<path d="M23.0161 23.9564C29.2619 23.9564 34.3252 19.6136 34.3252 14.2565C34.3252 8.89943 29.2619 4.55664 23.0161 4.55664C16.7702 4.55664 11.707 8.89943 11.707 14.2565C11.707 19.6136 16.7702 23.9564 23.0161 23.9564Z" fill="#04262A"/>
<path d="M22.5087 0.000246975C21.7873 0.0230115 21.0775 0.0260109 20.3805 0.252581C19.9227 0.418741 19.5123 0.712606 19.025 0.795289C16.5577 1.58598 14.3203 3.02048 12.4911 4.8467C10.4022 6.92293 8.81232 9.4785 7.66728 12.1874C7.46587 12.6458 7.30089 13.1175 7.10749 13.5818C6.93244 13.8812 6.73395 14.1694 6.60531 14.4945C6.25163 15.3235 6.06762 16.2107 5.82721 17.0762C5.63501 17.8587 5.47487 18.682 5.65531 19.4829C5.72929 19.8322 5.59033 20.2172 5.78867 20.5397C5.90865 20.841 5.68538 21.1641 5.40506 21.2738C4.16442 22.0501 3.26845 23.2617 2.53575 24.4984C1.46264 26.3496 0.809586 28.4001 0.397653 30.4913C0.292967 31.0522 0.160154 31.6813 0.465389 32.2053C0.596479 32.426 0.621049 32.7427 0.404411 32.9205C0.118465 33.205 0.00136237 33.6285 0 34.0068C0.00713621 34.5948 0.0301247 35.1797 0.0742828 35.7616C0.213136 37.4823 0.577043 39.2182 1.40182 40.7485C1.89999 41.6341 2.63957 42.4333 3.6 42.8116C4.62387 43.1879 5.79221 43.0058 6.72589 42.4716C7.0697 42.2703 7.419 41.998 7.72013 41.7128C8.98808 40.5318 9.8869 39.0057 10.5711 37.4345C10.7604 37.1256 11.3274 37.1432 11.4255 37.5194C11.4699 37.9794 11.3972 38.4427 11.4361 38.9039C11.5315 41.3327 12.4289 43.7386 13.956 45.6358C15.5483 47.6396 17.8177 49.1017 20.3141 49.6811C22.3216 50.1595 24.4303 50.0998 26.4007 49.5008C28.4145 48.8866 30.2618 47.7019 31.6663 46.122C32.8064 44.8516 33.6772 43.3029 34.1405 41.6477C34.5208 40.3404 34.6628 38.9928 34.584 37.6381C34.6035 37.2206 35.2338 37.0879 35.4498 37.4286C35.743 38.082 36.0486 38.7339 36.425 39.3454C36.9643 40.2236 37.5786 41.0572 38.3476 41.7525C38.8642 42.2177 39.4829 42.6233 40.1394 42.8403C40.9703 43.1359 41.9094 43.0609 42.6993 42.6772C43.5505 42.2826 44.2287 41.5645 44.6297 40.7216C45.4426 39.2127 45.8022 37.4987 45.9554 35.811C46.0068 35.0777 46.0783 34.3336 45.9635 33.6045C45.9259 33.3763 45.8398 33.1543 45.6657 32.9952C45.4913 32.8272 45.4557 32.5549 45.5815 32.3479C45.6944 32.1465 45.8274 31.9432 45.8151 31.7014C45.825 31.2514 45.6793 30.7996 45.6167 30.3726C45.1068 27.7691 44.1562 25.1972 42.5392 23.0628C41.9684 22.299 41.2665 21.6253 40.4384 21.1466C40.2062 21.0103 40.1814 20.7098 40.2709 20.4799C40.4089 20.151 40.3355 19.7895 40.3932 19.4455C40.4909 18.9918 40.4863 18.5221 40.4102 18.0651C40.2767 17.3201 40.0886 16.595 39.8937 15.8679C39.6697 15.0618 39.3687 14.2613 38.9263 13.5402C38.5059 12.5521 38.1431 11.5363 37.6372 10.5876C36.2037 7.73552 34.2105 5.13435 31.6503 3.2085C30.2767 2.18679 28.7267 1.36017 27.0888 0.830437C26.7718 0.715598 26.4236 0.666337 26.1465 0.464C25.4217 0.055594 24.5726 0.0428268 23.7671 0.00881299C23.3477 -0.00165346 22.9281 -1.25237e-05 22.5087 0.000246975Z" fill="url(#paint0_linear_1_18)"/>
<path d="M44.8789 33.6758C44.8125 33.6745 44.7122 33.7354 44.5611 33.8429C44.2105 34.0926 43.1148 34.5463 42.386 34.7434C41.5377 34.9728 38.7674 34.9768 37.7152 34.7504C37.1174 34.6217 35.9416 34.2849 35.5034 34.1167C35.4251 34.0866 35.4446 34.2522 35.5725 34.7052C36.6049 38.3643 38.5222 41.1875 40.44 41.8726C41.2852 42.1745 42.3347 41.915 43.0136 41.2361C44.2094 40.0403 45.0044 37.266 45.0057 34.2832C45.0059 33.8552 44.9897 33.6782 44.8789 33.6758Z" fill="url(#paint1_linear_1_18)"/>
<path d="M1.11271 33.6621C1.00199 33.6621 1.00453 34.7416 1.11793 35.9384C1.40461 38.9631 2.39359 41.1165 3.80573 41.791C4.18391 41.9718 4.34487 41.9981 4.89595 41.9707C5.42918 41.9442 5.63973 41.8872 6.09852 41.6447C7.52605 40.8899 9.07196 38.7086 9.99111 36.1529C10.2763 35.3599 10.6588 34.0914 10.6126 34.0914C10.6 34.0914 10.3615 34.1717 10.0824 34.2695C9.80342 34.3674 9.16908 34.5437 8.67302 34.6615C7.54297 34.93 5.35 35.0335 4.3151 34.8672C3.49807 34.7358 2.21126 34.2858 1.62968 33.9279C1.39198 33.7817 1.15922 33.6621 1.11271 33.6621Z" fill="url(#paint2_linear_1_18)"/>
<path d="M7.70897 21.6406C7.61609 21.6407 7.50871 21.6466 7.37684 21.6559C6.52222 21.717 5.80875 22.095 4.97893 22.9263C3.39848 24.5097 2.18402 27.0461 1.49488 30.2022C1.18564 31.6183 1.19353 31.6812 1.73504 32.095C2.48729 32.6698 3.5704 33.1452 4.52801 33.3208C5.19205 33.4426 7.41574 33.3439 8.24183 33.1558C9.49432 32.8708 10.9385 32.2529 11.022 31.9664C11.1465 31.5386 11.2616 29.3869 11.2092 28.4643C11.0172 25.0828 9.97608 22.5899 8.44288 21.8398C8.13771 21.6905 7.98763 21.6404 7.70897 21.6406Z" fill="url(#paint3_linear_1_18)"/>
<path d="M38.5464 21.6371C37.8799 21.6246 37.2762 21.9045 36.7415 22.4761C35.3494 23.9644 34.5813 27.2907 34.8622 30.6142C34.918 31.2748 34.9836 31.8837 35.0082 31.9674C35.1278 32.3749 37.3138 33.1506 38.9054 33.3503C39.0707 33.3711 39.7472 33.3763 40.4086 33.362C41.3601 33.3414 41.7368 33.2963 42.2125 33.1456C43.0061 32.8943 43.8281 32.4732 44.3687 32.0417L44.8072 31.6919L44.7296 31.1954C44.0684 26.9792 41.965 23.0357 39.8125 21.976C39.3687 21.7575 38.9462 21.6447 38.5464 21.6371Z" fill="url(#paint4_linear_1_18)"/>
<path d="M23.0031 1.23244C22.1261 1.23374 21.2458 1.30321 20.6075 1.43991C18.8338 1.8198 17.241 2.50065 15.6685 3.55148C10.9587 6.69901 7.58648 12.7802 6.74067 19.6501L6.68359 20.1122L7.13869 20.0674C8.3222 19.9507 9.41055 20.38 10.343 21.3315C11.2765 22.2839 11.9036 23.4889 12.3117 25.1146C12.849 27.2553 12.9204 29.791 12.5687 32.2928C14.741 28.5843 18.7162 26.3051 23.0141 26.304C27.2939 26.3044 31.2558 28.5638 33.4352 32.2473C33.2427 30.7269 33.2114 27.6352 33.3918 26.6178C33.8425 24.0756 34.5156 22.5223 35.6826 21.3315C36.6159 20.3792 37.7032 19.9507 38.8893 20.0676L39.3474 20.1127L39.2906 19.6935C38.7847 15.9695 37.7433 12.7513 36.145 9.97046C33.4662 5.30984 29.7685 2.37659 25.3808 1.43239C24.7543 1.29757 23.8801 1.23113 23.0031 1.23244ZM23.0465 5.91818C23.5781 5.91905 24.1152 5.96245 24.6537 6.04979C28.8423 6.72908 32.1206 9.885 33.0354 14.1199C33.2413 15.0727 33.2468 17.0823 33.0461 17.8905C32.6517 19.4778 31.6409 20.4773 29.8793 21.0207C28.2331 21.5285 24.3351 21.736 20.0607 21.5436C15.5112 21.3387 13.6115 20.3555 13.0029 17.8905C12.6886 16.6175 12.8359 14.3972 13.3324 12.9173C14.7274 8.75887 18.5794 6.00826 22.8191 5.92046C22.8948 5.91874 22.9706 5.91818 23.0465 5.91818Z" fill="url(#paint5_linear_1_18)"/>
<path d="M23.0142 45.923C27.1621 45.923 30.5246 42.5605 30.5246 38.4127C30.5246 34.2648 27.1621 30.9023 23.0142 30.9023C18.8664 30.9023 15.5039 34.2648 15.5039 38.4127C15.5039 42.5605 18.8664 45.923 23.0142 45.923Z" fill="#7FF73F"/>
<path d="M23.0158 27.8457C20.2134 27.8457 17.5257 28.959 15.5441 30.9406C13.5625 32.9222 12.4492 35.6099 12.4492 38.4123C12.4492 41.2148 13.5625 43.9024 15.5441 45.884C17.5257 47.8657 20.2134 48.9789 23.0158 48.9789C25.8183 48.9789 28.5059 47.8657 30.4876 45.884C32.4692 43.9024 33.5824 41.2148 33.5825 38.4123C33.5825 35.6099 32.4692 32.9222 30.4876 30.9406C28.5059 28.959 25.8183 27.8457 23.0158 27.8457ZM23.0223 32.3559C23.7314 32.3688 24.4331 32.7151 24.8114 33.3295C26.0739 35.6649 27.2001 38.0806 28.4111 40.4468C29.0871 41.7008 28.2027 43.4101 26.7857 43.5743C24.3422 43.6242 21.8903 43.6043 19.4468 43.5835C18.0573 43.5606 16.9932 41.9876 17.5315 40.6979C18.3645 38.8295 19.3538 37.0252 20.2466 35.1815C20.8122 34.161 21.1577 32.7686 22.4318 32.4247C22.6246 32.3745 22.8237 32.3523 23.0223 32.3559ZM23.05 33.4182C22.6827 33.4129 22.3154 33.5696 22.1129 33.8901C20.9285 36.1009 19.857 38.3821 18.7158 40.6198C18.22 41.2575 18.4766 42.3533 19.3263 42.4975C21.5871 42.5938 23.8637 42.5116 26.1303 42.539C26.9077 42.704 27.7532 42.0111 27.5539 41.198C26.7241 39.3221 25.7258 37.5109 24.8305 35.66C24.3637 34.9376 24.2242 33.9066 23.411 33.4774C23.2948 33.4397 23.1724 33.42 23.05 33.4182Z" fill="url(#paint6_linear_1_18)"/>
<path d="M23.0155 28.877C21.7633 28.8769 20.5234 29.1235 19.3666 29.6027C18.2098 30.0818 17.1587 30.7841 16.2733 31.6695C15.3878 32.5549 14.6855 33.606 14.2063 34.7628C13.7271 35.9196 13.4805 37.1595 13.4805 38.4116C13.4804 39.6638 13.7271 40.9037 14.2062 42.0606C14.6854 43.2174 15.3877 44.2685 16.2731 45.1539C17.1585 46.0394 18.2097 46.7417 19.3665 47.2209C20.5234 47.7 21.7633 47.9466 23.0155 47.9466C24.2676 47.9466 25.5075 47.7 26.6643 47.2208C27.8211 46.7416 28.8722 46.0392 29.7576 45.1538C30.6429 44.2684 31.3453 43.2173 31.8244 42.0605C32.3036 40.9037 32.5502 39.6638 32.5501 38.4116C32.5501 35.8829 31.5456 33.4577 29.7575 31.6696C27.9694 29.8815 25.5442 28.877 23.0155 28.877ZM23.0155 29.9039C24.1327 29.9039 25.239 30.1239 26.2712 30.5515C27.3034 30.979 28.2413 31.6057 29.0313 32.3957C29.8214 33.1858 30.448 34.1237 30.8756 35.1559C31.3032 36.1881 31.5232 37.2944 31.5232 38.4116C31.5232 39.5289 31.3032 40.6352 30.8756 41.6674C30.448 42.6996 29.8214 43.6375 29.0313 44.4275C28.2413 45.2175 27.3034 45.8442 26.2712 46.2718C25.239 46.6993 24.1327 46.9194 23.0155 46.9194C21.8982 46.9194 20.7919 46.6993 19.7597 46.2718C18.7275 45.8442 17.7896 45.2176 16.9996 44.4275C16.2095 43.6375 15.5829 42.6996 15.1553 41.6674C14.7278 40.6352 14.5077 39.5289 14.5077 38.4116C14.5077 37.2944 14.7278 36.1881 15.1553 35.1559C15.5829 34.1236 16.2095 33.1858 16.9996 32.3957C17.7896 31.6057 18.7275 30.979 19.7597 30.5515C20.7919 30.1239 21.8982 29.9039 23.0155 29.9039Z" fill="#4AC308"/>
<path d="M16.5243 17.4913C16.0968 16.4621 15.996 14.7028 16.4438 13.1612C16.8917 11.6195 17.8882 10.2963 18.8428 9.68004C19.7973 9.06377 20.7096 9.15448 21.2735 10.0795C21.8373 11.0045 22.0528 12.7637 22.0291 14.3321C22.0054 15.9005 21.7424 17.2781 21.1077 18.0436C20.4729 18.8092 19.4662 18.9627 18.5859 18.8906C17.7056 18.8184 16.9518 18.5205 16.5243 17.4913Z" fill="#55D108"/>
<path d="M29.5104 17.4913C29.9379 16.4621 30.0387 14.7028 29.5909 13.1611C29.143 11.6195 28.1465 10.2963 27.192 9.68004C26.2374 9.06377 25.3251 9.15448 24.7612 10.0795C24.1974 11.0045 23.9819 12.7637 24.0057 14.3321C24.0294 15.9005 24.2923 17.2781 24.927 18.0436C25.5618 18.8092 26.5685 18.9627 27.4488 18.8906C28.3291 18.8184 29.0829 18.5205 29.5104 17.4913Z" fill="#55D108"/>
<path d="M22.9713 4.9903C22.8748 4.99073 22.7783 4.99202 22.6819 4.99438C18.6833 5.08997 14.8567 7.54382 13.0755 11.1214C12.1212 12.9568 11.8007 15.0692 11.9417 17.1186C12.0499 18.5857 12.69 20.0648 13.9103 20.9397C15.4194 22.0526 17.3529 22.2613 19.164 22.4298C21.2237 22.5734 23.2915 22.537 25.3544 22.5148C26.8943 22.4416 28.4466 22.3326 29.9491 21.9717C31.5057 21.5658 32.9691 20.5631 33.6315 19.0586C34.1987 17.8212 34.1426 16.421 34.0878 15.0934C33.8066 11.0222 30.9641 7.32179 27.2097 5.79659C25.8689 5.24793 24.4184 4.98637 22.9713 4.9903ZM23.048 5.91853C23.5797 5.9194 24.1167 5.96263 24.6553 6.04997C28.8439 6.72925 32.1221 9.88517 33.037 14.12C33.2429 15.0728 33.2484 17.0825 33.0476 17.8907C32.6533 19.4779 31.6424 20.4774 29.8808 21.0208C28.2346 21.5287 24.3367 21.7362 20.0623 21.5438C15.5128 21.3389 13.613 20.3557 13.0044 17.8907C12.6901 16.6177 12.8375 14.3974 13.3339 12.9175C14.7289 8.75905 18.5809 6.00844 22.8206 5.92064C22.8963 5.91891 22.9721 5.91853 23.048 5.91853Z" fill="#166F7B"/>
<path d="M17.8121 15.1402C17.8761 14.2291 18.3606 12.723 18.8595 11.9816C19.3585 11.2402 19.8715 11.2635 20.1351 12.1123C20.3986 12.9612 20.4124 14.6353 20.3564 15.571C20.3003 16.5067 20.1745 16.7039 19.847 16.7663C19.5195 16.8287 18.9902 16.7563 18.5474 16.562C18.1046 16.3678 17.7482 16.0514 17.8121 15.1402Z" fill="#7FF73F"/>
<path d="M22.6873 1.02352C22.2835 1.02396 21.8948 1.03982 21.5629 1.06857C20.5007 1.16061 20.0193 1.3872 20.3026 1.9325C20.5858 2.4778 21.6339 3.34143 22.7385 3.46882C22.8308 3.47944 22.9234 3.48492 23.0161 3.48572C23.0183 3.48571 23.0198 3.48573 23.0216 3.48572C23.1143 3.48485 23.2069 3.47944 23.2992 3.46882C24.4038 3.34143 25.4519 2.4778 25.7351 1.9325C26.0184 1.3872 25.537 1.16061 24.4748 1.06857C24.1429 1.03982 23.7542 1.02398 23.3504 1.02352C23.2416 1.02309 23.1317 1.02439 23.0216 1.02671C23.0194 1.02667 23.0179 1.02674 23.0161 1.02671C22.906 1.02443 22.7961 1.02307 22.6873 1.02352Z" fill="#2A929F"/>
<path d="M6.91911 16.9165C6.81503 17.3067 6.72973 17.6862 6.67159 18.0143C6.48559 19.0641 6.57985 19.5878 7.17988 19.4553C7.77992 19.3228 8.88539 18.534 9.29433 17.5C9.32848 17.4136 9.35773 17.3255 9.38252 17.2362C9.38297 17.2343 9.38342 17.2325 9.38388 17.2309C9.40699 17.1412 9.42579 17.0503 9.43941 16.9584C9.60225 15.8585 9.03929 14.6226 8.58589 14.2078C8.1325 13.7931 7.78902 14.1995 7.42521 15.2016C7.31153 15.5148 7.19563 15.8861 7.09067 16.2761C7.0621 16.381 7.03496 16.4875 7.00864 16.5945C7.00819 16.5963 7.00773 16.5981 7.00727 16.5997C6.97657 16.7055 6.94682 16.8113 6.91911 16.9165Z" fill="#2A929F"/>
<path d="M39.1154 16.9165C39.2195 17.3067 39.3048 17.6862 39.3629 18.0143C39.5489 19.0641 39.4547 19.5878 38.8546 19.4553C38.2546 19.3228 37.1491 18.534 36.7402 17.5C36.7061 17.4136 36.6768 17.3255 36.652 17.2362C36.6516 17.2343 36.6511 17.2325 36.6507 17.2309C36.6275 17.1412 36.6087 17.0503 36.5951 16.9584C36.4323 15.8585 36.9952 14.6226 37.4486 14.2078C37.902 13.7931 38.2455 14.1995 38.6093 15.2016C38.723 15.5148 38.8389 15.8861 38.9439 16.2761C38.9724 16.381 38.9996 16.4875 39.0259 16.5945C39.0263 16.5963 39.0268 16.5981 39.0273 16.5997C39.058 16.7055 39.0877 16.8113 39.1154 16.9165Z" fill="#2A929F"/>
<path d="M7.70829 21.6406C7.61541 21.6407 7.50782 21.6466 7.37595 21.6559C6.52135 21.717 5.80784 22.095 4.97805 22.9263C4.45959 23.4457 3.98095 24.0684 3.54688 24.7811C4.3486 24.3282 5.51929 23.7478 6.76601 23.8517C8.08789 23.9619 9.48982 24.8431 10.2508 26.6256C10.7892 27.8867 11.0063 29.5973 11.1408 31.0194C11.2054 30.191 11.2426 29.0667 11.2083 28.4642C11.0163 25.0828 9.97538 22.59 8.4422 21.8399C8.13701 21.6906 7.98695 21.6404 7.70829 21.6406Z" fill="#126A76"/>
<path d="M38.3177 21.6406C38.4106 21.6407 38.5181 21.6466 38.65 21.6559C39.5046 21.717 40.2182 22.095 41.048 22.9263C41.5664 23.4457 42.0451 24.0684 42.4791 24.7811C41.6774 24.3282 40.5067 23.7478 39.26 23.8517C37.9381 23.9619 36.5362 24.8431 35.7752 26.6256C35.2368 27.8867 35.0197 29.5973 34.8852 31.0194C34.8206 30.191 34.7835 29.0667 34.8177 28.4642C35.0097 25.0828 36.0506 22.59 37.5838 21.8399C37.889 21.6906 38.0391 21.6404 38.3177 21.6406Z" fill="#126A76"/>
<path d="M28.2233 15.1402C28.1593 14.229 27.6749 12.723 27.1759 11.9816C26.677 11.2402 26.1639 11.2635 25.9004 12.1123C25.6368 12.9612 25.6231 14.6353 25.6791 15.571C25.7351 16.5067 25.861 16.7039 26.1885 16.7663C26.516 16.8287 27.0453 16.7563 27.4881 16.562C27.9309 16.3678 28.2873 16.0514 28.2233 15.1402Z" fill="#7FF73F"/>
<path fill-rule="evenodd" clip-rule="evenodd" d="M141.084 32.2731C141.084 33.4857 140.886 34.6455 140.49 35.7529C140.094 36.8603 139.492 37.8588 138.683 38.748C137.883 39.6373 136.877 40.3446 135.664 40.87C134.452 41.3874 133.061 41.646 131.493 41.646C129.925 41.646 128.522 41.3874 127.286 40.87C126.049 40.3526 125.018 39.6492 124.193 38.76C123.369 37.8627 122.746 36.8482 122.326 35.7165C121.905 34.5767 121.695 33.4045 121.695 32.2C121.695 30.9955 121.898 29.8276 122.302 28.6959C122.714 27.5641 123.329 26.5336 124.145 25.6041C124.969 24.6664 125.984 23.9183 127.188 23.3606C127.827 23.0696 128.482 22.8473 129.153 22.6937C129.832 22.5321 130.547 22.4512 131.299 22.4512C132.827 22.4512 134.201 22.718 135.422 23.2515C136.65 23.785 137.681 24.5084 138.514 25.4219C139.346 26.3273 139.977 27.3499 140.405 28.4897C140.623 29.0798 140.789 29.6739 140.902 30.2721C141.024 30.8622 141.084 31.4564 141.084 32.0546V32.2731ZM134.828 31.8484C134.828 30.7975 134.666 29.9205 134.343 29.2173C134.019 28.514 133.599 27.9965 133.082 27.665C132.572 27.3255 132.043 27.156 131.493 27.156C130.83 27.156 130.236 27.3337 129.71 27.6894C129.185 28.0451 128.765 28.5947 128.449 29.3384C128.142 30.074 127.989 30.9795 127.989 32.0546C127.989 33.6794 128.304 34.9364 128.935 35.8256C129.565 36.7067 130.418 37.1474 131.493 37.1474C132.56 37.1474 133.381 36.6868 133.955 35.7653C134.537 34.8356 134.828 33.5298 134.828 31.8484ZM68.2594 27.9193H73.5579V23.0566H69.6295H56.9219V27.9193H62.1965V28.3436V41.0512H68.2594V40.6268V27.9193ZM75.7266 41.0512H81.7895V35.7522V23.0566H75.7266V28.3436V41.0512ZM101.655 29.4592C101.655 30.2191 101.501 30.9706 101.194 31.7143C100.895 32.4499 100.434 33.1089 99.8116 33.6909C99.1972 34.2729 98.4254 34.7338 97.4957 35.0734C96.5661 35.4128 95.511 35.5824 94.3308 35.5824H90.9965V41.0512H84.9336V28.3436V23.0566H94.125C95.3456 23.0566 96.4164 23.2347 97.3379 23.5904C97.823 23.7682 98.2596 23.9744 98.6477 24.2089C99.0356 24.4433 99.3954 24.718 99.7269 25.0332C100.365 25.6314 100.846 26.3186 101.17 27.0946C101.493 27.8626 101.655 28.6508 101.655 29.4592ZM95.6889 29.253C95.6889 28.7437 95.5194 28.2992 95.1799 27.9193C94.8403 27.5394 94.3634 27.3495 93.7491 27.3495H90.9965V31.0598H93.9309C94.4724 31.0598 94.901 30.882 95.2162 30.5264C95.5315 30.1626 95.6889 29.7381 95.6889 29.253ZM119.769 38.4201C120.246 37.6441 120.485 36.8276 120.485 35.9708C120.485 35.6474 120.452 35.34 120.388 35.049C120.323 34.7499 120.23 34.455 120.109 34.164C119.867 33.5819 119.499 33.0687 119.005 32.6241C118.512 32.1795 117.935 31.8561 117.272 31.6539C117.983 31.3144 118.533 30.8375 118.921 30.2231C119.317 29.6007 119.515 28.9092 119.515 28.1494C119.515 27.3087 119.256 26.4963 118.739 25.7121C118.222 24.9199 117.442 24.2816 116.399 23.7966C115.356 23.3034 114.082 23.0566 112.579 23.0566H103.582V28.3436V41.0512H113.937C115.36 41.0512 116.568 40.8086 117.563 40.3236C118.565 39.8305 119.3 39.1962 119.769 38.4201ZM113.561 27.9432C113.892 28.202 114.058 28.5133 114.058 28.877C114.058 29.257 113.876 29.5886 113.513 29.8715C113.149 30.1463 112.636 30.2835 111.973 30.2835H109.645V27.5553H112.179C112.769 27.5553 113.23 27.6846 113.561 27.9432ZM114.24 34.285C114.564 34.6003 114.725 34.9639 114.725 35.3762C114.725 35.7643 114.576 36.092 114.277 36.3587C113.986 36.6174 113.549 36.7467 112.967 36.7467H109.645V33.812H112.967C113.5 33.812 113.925 33.9698 114.24 34.285ZM153.623 27.9193H158.922V23.0566H154.993H142.285V27.9193H147.56V28.3436V41.0512H153.623V40.6268V27.9193Z" fill="url(#paint7_linear_1_18)"/>
<g opacity="0.991228">
<path d="M62.2863 18.267L62.7496 19.5745H64.3112L61.914 13.1367H60.2523L57.8281 19.5745H59.3354L59.7984 18.267H62.2863ZM60.2707 16.9595L61.0605 14.7347L61.8323 16.9595H60.2707Z" fill="#E5E6E9"/>
<path d="M67.3798 19.7199C68.7963 19.7199 69.931 18.8663 69.931 17.25V13.1367H68.4965V17.1319C68.4965 17.9128 68.0609 18.3033 67.3798 18.3033C66.6988 18.3033 66.2627 17.9128 66.2627 17.1319V13.1367H64.8281V17.25C64.8281 18.8663 65.9632 19.7199 67.3798 19.7199Z" fill="#E5E6E9"/>
<path d="M73.2167 17.1773L74.3697 19.5745H75.9498L74.6423 16.9685C75.4322 16.687 75.9134 16.024 75.9134 15.1523C75.9134 14.0081 75.096 13.1367 73.8247 13.1367H71.2734V19.5745H72.708V17.1773H73.2167ZM73.5526 15.9425H72.708V14.3805H73.5526C74.1428 14.3805 74.4605 14.6801 74.4605 15.1613C74.4605 15.6153 74.1428 15.9425 73.5526 15.9425Z" fill="#E5E6E9"/>
<path d="M76.5625 16.3598C76.5625 18.3938 78.0969 19.7103 79.913 19.7103C81.7198 19.7103 83.2544 18.3938 83.2544 16.3598C83.2544 14.3167 81.7198 13 79.913 13C78.0969 13 76.5625 14.3167 76.5625 16.3598ZM78.0514 16.3445C78.0514 15.0007 79.014 14.3922 79.913 14.3922C80.8027 14.3922 81.7655 15.0007 81.7655 16.3445C81.7655 17.6884 80.8027 18.2877 79.913 18.2877C79.014 18.2877 78.0514 17.6884 78.0514 16.3445Z" fill="#E5E6E9"/>
<path d="M86.2245 17.1773L87.3776 19.5745H88.9576L87.6497 16.9685C88.4398 16.687 88.9212 16.024 88.9212 15.1523C88.9212 14.0081 88.104 13.1367 86.8329 13.1367H84.2812V19.5745H85.7158V17.1773H86.2245ZM86.5604 15.9425H85.7158V14.3805H86.5604C87.1506 14.3805 87.4683 14.6801 87.4683 15.1613C87.4683 15.6153 87.1506 15.9425 86.5604 15.9425Z" fill="#E5E6E9"/>
<path d="M93.8218 18.267L94.2847 19.5745H95.8464L93.4496 13.1367H91.7878L89.3633 19.5745H90.8706L91.3335 18.267H93.8218ZM91.8058 16.9595L92.5957 14.7347L93.3675 16.9595H91.8058Z" fill="#E5E6E9"/>
<path d="M101.841 19.7103C103.839 19.7103 104.693 18.3484 104.901 17.4585L103.53 17.0679C103.403 17.5312 102.958 18.2757 101.841 18.2757C100.879 18.2757 99.9889 17.5764 99.9889 16.3688C99.9889 15.0158 100.96 14.3982 101.823 14.3982C102.958 14.3982 103.367 15.152 103.467 15.597L104.82 15.17C104.611 14.2439 103.757 13 101.823 13C100.025 13 98.5 14.362 98.5 16.3688C98.5 18.3754 99.9891 19.7103 101.841 19.7103Z" fill="#E5E6E9"/>
<path d="M105.453 16.3598C105.453 18.3938 106.987 19.7103 108.804 19.7103C110.611 19.7103 112.145 18.3938 112.145 16.3598C112.145 14.3167 110.611 13 108.804 13C106.987 13 105.453 14.3167 105.453 16.3598ZM106.942 16.3445C106.942 15.0007 107.905 14.3922 108.804 14.3922C109.693 14.3922 110.656 15.0007 110.656 16.3445C110.656 17.6884 109.693 18.2877 108.804 18.2877C107.905 18.2877 106.942 17.6884 106.942 16.3445Z" fill="#E5E6E9"/>
<path d="M119.056 19.5745H120.463V13.1367H118.493L116.813 17.4862L115.042 13.1367H113.172V19.5745H114.534V15.3611L116.214 19.5745H117.376L119.056 15.3068V19.5745Z" fill="#E5E6E9"/>
<path d="M127.747 19.5745H129.155V13.1367H127.184L125.505 17.4862L123.734 13.1367H121.863V19.5745H123.225V15.3611L124.905 19.5745H126.067L127.747 15.3068V19.5745Z" fill="#E5E6E9"/>
<path d="M133.052 19.7199C134.468 19.7199 135.603 18.8663 135.603 17.25V13.1367H134.169V17.1319C134.169 17.9128 133.733 18.3033 133.052 18.3033C132.371 18.3033 131.935 17.9128 131.935 17.1319V13.1367H130.5V17.25C130.5 18.8663 131.635 19.7199 133.052 19.7199Z" fill="#E5E6E9"/>
<path d="M141.022 19.5745H142.539V13.1367H141.104V17.0502L138.689 13.1367H136.945V19.5745H138.371V15.3431L141.022 19.5745Z" fill="#E5E6E9"/>
<path d="M143.926 19.5745H145.379V13.1367H143.926V19.5745Z" fill="#E5E6E9"/>
<path d="M149.656 14.5076H151.645V13.1367H146.242V14.5076H148.221V19.5745H149.656V14.5076Z" fill="#E5E6E9"/>
<path d="M152.09 13.1367L154.324 16.8868V19.5745H155.758V16.8868L158.019 13.1367H156.421L155.086 15.5245L153.77 13.1367H152.09Z" fill="#E5E6E9"/>
</g>
<defs>
<linearGradient id="paint0_linear_1_18" x1="36.7922" y1="1.12181" x2="7.6571" y2="54.5219" gradientUnits="userSpaceOnUse">
<stop stop-color="#05353C"/>
<stop offset="1" stop-color="#031D20"/>
</linearGradient>
<linearGradient id="paint1_linear_1_18" x1="41.5855" y1="42.1624" x2="40.1991" y2="30.7467" gradientUnits="userSpaceOnUse">
<stop stop-color="#08555E"/>
<stop offset="1" stop-color="#08555E" stop-opacity="0"/>
</linearGradient>
<linearGradient id="paint2_linear_1_18" x1="4.2757" y1="44.7906" x2="6.77112" y2="30.2506" gradientUnits="userSpaceOnUse">
<stop stop-color="#08555E"/>
<stop offset="1" stop-color="#08555E" stop-opacity="0"/>
</linearGradient>
<linearGradient id="paint3_linear_1_18" x1="5.12201" y1="37.8891" x2="9.26744" y2="22.4181" gradientUnits="userSpaceOnUse">
<stop stop-color="#0A5C67"/>
<stop offset="1" stop-color="#33A2B0"/>
</linearGradient>
<linearGradient id="paint4_linear_1_18" x1="47.4546" y1="35.4742" x2="36.8216" y2="24.154" gradientUnits="userSpaceOnUse">
<stop stop-color="#0A5C67"/>
<stop offset="1" stop-color="#309DAB"/>
</linearGradient>
<linearGradient id="paint5_linear_1_18" x1="22.8111" y1="34.8409" x2="22.8111" y2="3.25322" gradientUnits="userSpaceOnUse">
<stop stop-color="#0A5C67"/>
<stop offset="1" stop-color="#309CAA"/>
</linearGradient>
<linearGradient id="paint6_linear_1_18" x1="19.9567" y1="52.1524" x2="29.7869" y2="26.6813" gradientUnits="userSpaceOnUse">
<stop stop-color="#249108"/>
<stop offset="1" stop-color="#63E308"/>
</linearGradient>
<linearGradient id="paint7_linear_1_18" x1="187.396" y1="27.4507" x2="38.2219" y2="43.6006" gradientUnits="userSpaceOnUse">
<stop stop-color="#7AF338"/>
<stop offset="1" stop-color="#1D7B74"/>
</linearGradient>
</defs>
</svg>
